<?xml version="1.0" encoding="iso-8859-1"?>
<!-- Generator: Adobe Illustrator 19.0.0, SVG Export Plug-In . SVG Version: 6.00 Build 0)  -->
<svg version="1.1" id="Layer_1" xmlns="http://www.w3.org/2000/svg" xmlns:xlink="http://www.w3.org/1999/xlink" x="0px" y="0px"
	 viewBox="0 0 512 512" style="enable-background:new 0 0 512 512;" xml:space="preserve">
<path style="fill:#5EAC24;" d="M256,512c-68.38,0-132.668-26.629-181.019-74.981C26.628,388.668,0,324.38,0,255.999
	S26.628,123.332,74.981,74.981S187.62,0,256,0c68.379,0,132.667,26.629,181.02,74.981C485.371,123.332,512,187.62,512,255.999
	c0,68.38-26.629,132.669-74.981,181.02C388.667,485.371,324.38,512,256,512z"/>
<path style="fill:#47821C;" d="M112.686,253.574c0-68.38,26.628-132.667,74.981-181.019c33.437-33.436,74.495-56.476,119.255-67.514
	C290.337,1.712,273.3,0,256,0C187.62,0,123.332,26.629,74.981,74.981C26.628,123.332,0,187.619,0,256s26.628,132.669,74.981,181.019
	C123.332,485.371,187.62,512,256,512c21.094,0,41.796-2.542,61.764-7.467c-48.966-9.83-93.978-33.821-130.097-69.939
	C139.315,386.242,112.686,321.954,112.686,253.574z"/>
<circle style="fill:#FFFFFF;" cx="256" cy="256" r="223.838"/>
<path style="fill:#FFF5CC;" d="M238.881,32.809C123.258,41.552,32.163,138.138,32.163,255.999
	c0,121.083,96.146,219.696,216.256,223.695c-22.087-11.782-42.55-26.9-60.751-45.101c-48.353-48.352-74.981-112.639-74.981-181.02
	c0-68.38,26.628-132.667,74.981-181.019C203.22,57.001,220.424,43.701,238.881,32.809z"/>
<g>
	<path style="fill:#FFE477;" d="M313.074,81.084c-8.476-9.061-27.877-24.816-57.075-24.816c-28.948,0-48.037,15.099-56.454,23.797
		c-0.281,0.351-4.791,6.19-1.269,14.703l53.41,129.053l0,0c0,0,4.763,11.571,9.561,0l53.244-128.398
		C317.787,86.882,313.074,81.084,313.074,81.084z"/>
	<path style="fill:#FFE477;" d="M171.122,90.14c-12.401-0.414-37.26,2.164-57.906,22.811c-20.47,20.47-23.291,44.643-23.092,56.745
		c0.05,0.447,0.988,7.765,9.499,11.293l129.021,53.487l0,0c0,0,11.55,4.815,6.76-6.76l-53.141-128.44
		C178.553,90.908,171.122,90.14,171.122,90.14z"/>
</g>
<path style="fill:#FFDA44;" d="M120.716,189.735c9.319-36.378,26.598-70.248,50.958-99.5c-0.341-0.069-0.551-0.094-0.551-0.094
	c-12.402-0.414-37.26,2.164-57.906,22.811c-20.47,20.47-23.292,44.644-23.092,56.745c0.05,0.447,0.988,7.765,9.5,11.293
	L120.716,189.735z"/>
<path style="fill:#FFE477;" d="M81.049,199.505c-9.061,8.476-24.816,27.877-24.816,57.075c0,28.948,15.099,48.037,23.797,56.454
	c0.351,0.281,6.19,4.791,14.703,1.268l129.053-53.41l0,0c0,0,11.571-4.763,0-9.561L95.387,198.088
	C86.846,194.793,81.049,199.505,81.049,199.505z"/>
<path style="fill:#FFDA44;" d="M112.687,253.716c0-15.835,1.446-31.446,4.241-46.695l-21.541-8.933
	c-8.541-3.295-14.338,1.417-14.338,1.417c-9.061,8.476-24.816,27.877-24.816,57.075c0,28.948,15.099,48.037,23.797,56.454
	c0.351,0.281,6.19,4.791,14.703,1.268l23.024-9.529C114.408,288.146,112.687,271.063,112.687,253.716z"/>
<path style="fill:#FFE477;" d="M90.148,340.891c-0.414,12.401,2.164,37.26,22.811,57.906c20.47,20.47,44.643,23.291,56.745,23.092
	c0.447-0.05,7.765-0.988,11.293-9.499l53.487-129.021l0,0c0,0,4.815-11.55-6.76-6.76L99.284,329.75
	C90.914,333.459,90.148,340.891,90.148,340.891z"/>
<path style="fill:#FFDA44;" d="M169.704,421.889c0.226-0.025,2.203-0.28,4.559-1.617c-25.075-29.178-42.966-63.138-52.79-99.702
	l-22.187,9.18c-8.369,3.709-9.137,11.141-9.137,11.141c-0.414,12.401,2.164,37.26,22.811,57.906
	C133.427,419.266,157.602,422.089,169.704,421.889z"/>
<g>
	<path style="fill:#FFE477;" d="M199.426,430.916c8.476,9.061,27.877,24.816,57.075,24.816c28.948,0,48.037-15.099,56.454-23.796
		c0.281-0.351,4.791-6.19,1.268-14.703l-53.41-129.053l0,0c0,0-4.763-11.571-9.561,0l-53.244,128.398
		C194.715,425.118,199.426,430.916,199.426,430.916z"/>
	<path style="fill:#FFE477;" d="M340.879,421.86c12.401,0.414,37.26-2.164,57.906-22.811c20.47-20.47,23.291-44.643,23.092-56.745
		c-0.05-0.447-0.988-7.765-9.499-11.293l-129.021-53.487l0,0c0,0-11.55-4.815-6.76,6.76l53.141,128.44
		C333.449,421.092,340.879,421.86,340.879,421.86z"/>
	<path style="fill:#FFE477;" d="M430.913,312.971c9.061-8.476,24.816-27.877,24.816-57.075c0-28.948-15.099-48.037-23.796-56.454
		c-0.351-0.281-6.19-4.791-14.703-1.269l-129.053,53.41l0,0c0,0-11.571,4.763,0,9.561l128.398,53.244
		C425.116,317.682,430.913,312.971,430.913,312.971z"/>
	<path style="fill:#FFE477;" d="M421.849,171.109c0.414-12.401-2.164-37.26-22.811-57.906c-20.47-20.47-44.643-23.291-56.745-23.092
		c-0.447,0.05-7.765,0.988-11.293,9.499l-53.487,129.021l0,0c0,0-4.815,11.55,6.76,6.76l128.44-53.141
		C421.081,178.541,421.849,171.109,421.849,171.109z"/>
</g>
<g>
</g>
<g>
</g>
<g>
</g>
<g>
</g>
<g>
</g>
<g>
</g>
<g>
</g>
<g>
</g>
<g>
</g>
<g>
</g>
<g>
</g>
<g>
</g>
<g>
</g>
<g>
</g>
<g>
</g>
</svg>
