<?xml version="1.0" standalone="no"?>
<!DOCTYPE svg PUBLIC "-//W3C//DTD SVG 20010904//EN"
 "http://www.w3.org/TR/2001/REC-SVG-20010904/DTD/svg10.dtd">
<svg version="1.0" xmlns="http://www.w3.org/2000/svg"
 width="700.000000pt" height="700.000000pt" viewBox="0 0 700.000000 700.000000"
 preserveAspectRatio="xMidYMid meet">
<metadata>
Created by potrace 1.14, written by Peter Selinger 2001-2017
</metadata>
<g transform="translate(0.000000,700.000000) scale(0.100000,-0.100000)"
fill="#000000" stroke="none">
<path d="M3123 6985 c-825 -94 -1569 -458 -2138 -1046 -553 -572 -886 -1284
-970 -2074 -19 -182 -19 -548 0 -730 175 -1650 1470 -2945 3120 -3120 162 -17
520 -20 680 -5 831 78 1571 426 2160 1015 588 587 941 1341 1015 2165 15 169
12 499 -5 666 -87 821 -430 1541 -1014 2124 -549 548 -1230 885 -2011 996
-160 22 -670 28 -837 9z m742 -451 c391 -47 811 -184 1140 -373 801 -461 1349
-1237 1504 -2131 35 -200 44 -309 44 -525 0 -219 -10 -341 -44 -535 -144 -828
-625 -1558 -1334 -2026 -393 -258 -829 -417 -1320 -480 -158 -20 -521 -23
-675 -5 -722 85 -1340 380 -1840 881 -490 490 -785 1094 -876 1795 -23 178
-23 552 0 730 92 706 389 1312 885 1805 665 660 1581 975 2516 864z"/>
<path d="M3315 6215 c-174 -32 -340 -107 -481 -216 -111 -85 -154 -158 -139
-237 11 -57 754 -1845 778 -1870 30 -32 58 -24 84 23 12 22 187 438 388 925
324 781 367 891 367 937 0 72 -25 115 -99 179 -144 122 -287 198 -451 241
-124 32 -327 40 -447 18z"/>
<path d="M2098 5750 c-173 -36 -311 -98 -446 -199 -244 -184 -402 -481 -419
-786 -5 -89 -3 -105 16 -142 30 -60 66 -83 246 -156 88 -36 493 -203 900 -371
408 -168 755 -309 773 -312 40 -8 62 9 62 46 0 39 -735 1816 -769 1860 -44 57
-101 80 -196 79 -44 0 -119 -9 -167 -19z"/>
<path d="M4635 5751 c-22 -10 -52 -32 -67 -47 -19 -20 -145 -313 -399 -924
-204 -492 -376 -910 -381 -929 -5 -18 -7 -44 -4 -57 5 -19 13 -24 41 -24 43 0
1815 731 1865 769 19 15 45 47 58 72 22 40 23 52 18 137 -18 273 -115 497
-299 689 -172 179 -397 291 -650 323 -111 14 -136 13 -182 -9z"/>
<path d="M1145 4297 c-68 -32 -198 -194 -267 -332 -127 -253 -146 -560 -52
-829 48 -137 141 -289 242 -393 46 -48 104 -68 167 -60 37 6 224 79 370 146
33 15 375 158 759 316 384 159 713 298 730 310 37 25 44 55 18 78 -10 9 -344
152 -743 317 -398 165 -737 306 -754 315 -16 8 -95 42 -175 76 -159 66 -239
82 -295 56z"/>
<path d="M5610 4251 c-774 -315 -1698 -705 -1718 -725 -30 -29 -23 -60 18 -81
15 -8 426 -180 911 -381 957 -397 955 -397 1039 -359 44 20 132 117 198 218
241 373 226 857 -39 1217 -93 127 -153 170 -234 170 -16 0 -95 -27 -175 -59z"/>
<path d="M2680 3039 c-405 -168 -706 -292 -1195 -491 -171 -70 -197 -86 -232
-146 -25 -41 -25 -49 -20 -155 23 -468 348 -865 804 -983 127 -33 286 -43 328
-21 77 40 78 42 466 977 204 492 376 910 381 929 5 18 7 44 4 57 -12 46 -58
32 -536 -167z"/>
<path d="M3783 3214 c-7 -3 -13 -21 -13 -39 0 -43 731 -1816 769 -1865 15 -19
47 -45 72 -58 40 -22 52 -23 138 -17 286 18 529 130 719 329 170 179 266 388
294 643 10 89 9 107 -6 146 -33 88 -13 78 -986 482 -498 206 -921 377 -940
380 -19 2 -41 2 -47 -1z"/>
<path d="M3466 3111 c-26 -28 -766 -1817 -773 -1867 -12 -87 33 -154 172 -257
331 -246 751 -285 1120 -103 110 54 257 162 299 219 14 18 21 48 24 90 l4 63
-376 910 c-207 500 -384 920 -395 934 -23 32 -52 36 -75 11z"/>
</g>
</svg>
